<svg width="293" height="300" viewBox="0 0 293 300" fill="none" xmlns="http://www.w3.org/2000/svg">
<path fill-rule="evenodd" clip-rule="evenodd" d="M100 5C100 2.23858 97.7614 0 95 0H5C2.23858 0 0 2.23858 0 5V150V295C0 297.761 2.23858 300 5 300H95C97.7614 300 100 297.761 100 295V203.09C100 201.196 98.93 199.465 97.2361 198.618L0 150L97.2361 101.382C98.93 100.535 100 98.8037 100 96.9098V5Z" fill="white"/>
<path d="M200 95C200 98 198 100 195 100H197.5H200L200 96.0843C200 93.8775 200 92.2807 200 95Z" fill="white"/>
<path d="M200 203.886C200 201.554 198 200 195 200H197.5H200L200 203.043C200 204.758 200 205.999 200 203.886Z" fill="white"/>
<path d="M100 205C100 202 102 200 105 200H102.5H100L100 203.916C100 206.122 100 207.719 100 205Z" fill="white"/>
<path d="M100 95C100 98 102 100 105 100H102.5H100L100 96.0843C100 93.8775 100 92.2807 100 95Z" fill="white"/>
<path d="M100 192C100 195.5 96 198 93 196.5L100 200V192Z" fill="white"/>
<path d="M100 108C100 104.5 96 102 93 103.5L100 100V108Z" fill="white"/>
<path d="M8 146C5 147.5 4 152 8 154L0 150L8 146Z" fill="white"/>
<rect x="95" y="96" width="5" height="5" fill="white"/>
<rect x="95" y="198" width="5" height="5" fill="white"/>
<path fill-rule="evenodd" clip-rule="evenodd" d="M200 100L153.536 146.464C151.583 148.417 151.583 151.583 153.536 153.536L200 200H105C102.239 200 100 197.761 100 195V105C100 102.239 102.239 100 105 100H200ZM291.464 8.53553C294.614 5.3857 292.383 0 287.929 0H205C202.239 0 200 2.23858 200 5V100L291.464 8.53553ZM287.929 300C292.383 300 294.614 294.614 291.464 291.464L200 200V295C200 297.761 202.239 300 205 300H287.929Z" fill="white"/>
<rect x="100" y="100" width="5" height="5" fill="white"/>
<rect x="100" y="195" width="5" height="5" fill="white"/>
</svg>
