<svg width="500" height="242" viewBox="0 0 500 242" fill="none" xmlns="http://www.w3.org/2000/svg">
<path fill-rule="evenodd" clip-rule="evenodd" d="M321.078 110.657C321.108 110.686 321.108 110.735 321.078 110.764C321.048 110.794 321.048 110.842 321.078 110.872L426.599 216.393C436.049 225.842 429.356 242 415.993 242H316.997C313.019 242 309.204 240.419 306.391 237.606L260.92 192.135C255.062 186.278 245.565 186.278 239.707 192.135L194.236 237.606C191.423 240.419 187.608 242 183.629 242H84.6341C71.2705 242 64.578 225.842 74.0275 216.393L239.815 50.6061C245.673 44.7483 255.17 44.7483 261.028 50.6062L321.078 110.657Z" fill="white"/>
<path d="M113.814 95.6066C111.001 98.4196 107.186 100 103.208 100H15C6.71573 100 0 93.2843 0 85V15C0 6.71573 6.71573 0 15 0H173.208C186.571 0 193.264 16.1571 183.814 25.6066L113.814 95.6066ZM500 85C500 93.2843 493.284 100 485 100H397.635C393.657 100 389.842 98.4197 387.028 95.6067L317.028 25.6067C307.578 16.1572 314.271 0 327.634 0H485C493.284 0 500 6.71573 500 15V85Z" fill="white"/>
</svg>
